External Loads File
version=1
nRows=39
nColumns=13
Range=5.000000e-03-10 seconds
endheader
time 	forceRightX 	forceRightY 	forceRightZ 	pointRightX 	pointRightY 	pointRightZ 	forceLeftX 	forceLeftY 	forceLeftZ 	pointLeftX 	pointLeftY 	pointLeftZ 		
0.005000 -18.268211 75.439369 -0.000000 0.321755 0.354954 -0.106151 40.926269 112.105236 -0.000000 0.018107 0.287766 -0.341328
0.010000 -18.543360 75.601396 -0.000000 0.321770 0.355512 -0.106168 40.835949 112.641101 -0.000000 0.018197 0.287226 -0.341320
0.015000 -18.803113 75.800614 -0.000000 0.321768 0.356076 -0.106194 40.745804 113.189774 -0.000000 0.018244 0.286653 -0.341279
0.020000 -18.985900 76.059513 -0.000000 0.321757 0.356555 -0.106183 40.714965 113.704460 -0.000000 0.018294 0.286166 -0.341293
0.025000 -19.352080 76.305625 -0.000000 0.321681 0.357215 -0.105998 40.329078 114.306615 -0.000000 0.018057 0.284882 -0.341018
0.030000 -19.457673 76.637246 -0.000000 0.321655 0.357673 -0.106017 40.234205 114.743979 -0.000000 0.018063 0.284264 -0.340917
0.035000 -19.504587 76.988588 -0.000000 0.321613 0.358191 -0.106031 40.128825 115.113231 -0.000000 0.018102 0.283722 -0.340861
0.040000 -19.468482 77.347567 -0.000000 0.321600 0.358616 -0.106047 40.073347 115.392751 -0.000000 0.018151 0.283244 -0.340828
0.045000 -19.417086 77.675986 -0.000000 0.321591 0.359036 -0.106049 40.010275 115.613227 -0.000000 0.018229 0.282763 -0.340776
0.050000 -19.366609 77.951015 -0.000000 0.321528 0.359472 -0.106053 39.983368 115.788493 -0.000000 0.018295 0.282365 -0.340786
0.055000 -19.323109 78.159581 -0.000000 0.321453 0.359816 -0.106060 40.061043 115.930814 -0.000000 0.018336 0.282035 -0.340757
0.060000 -19.361267 78.281443 -0.000000 0.321457 0.360199 -0.106073 40.181864 116.080634 -0.000000 0.018407 0.281712 -0.340785
0.065000 -19.480403 78.324451 -0.000000 0.321461 0.360519 -0.106070 40.345564 116.235830 -0.000000 0.018477 0.281362 -0.340771
0.070000 -19.684800 78.302562 -0.000000 0.321462 0.360813 -0.106069 40.503506 116.403294 -0.000000 0.018528 0.280982 -0.340748
0.075000 -19.923650 78.249933 -0.000000 0.321391 0.361062 -0.106073 40.670303 116.569922 -0.000000 0.018595 0.280682 -0.340731
0.080000 -20.183382 78.195038 -0.000000 0.321381 0.361372 -0.106084 40.799037 116.743505 -0.000000 0.018633 0.280410 -0.340721
0.085000 -20.384807 78.177897 -0.000000 0.321383 0.361628 -0.106141 40.952655 116.893464 -0.000000 0.018656 0.280225 -0.340734
0.090000 -20.534450 78.200179 -0.000000 0.321406 0.361826 -0.106155 41.104644 117.029020 -0.000000 0.018684 0.280030 -0.340753
0.095000 -20.630383 78.248839 -0.000000 0.321444 0.361998 -0.106128 41.272031 117.155071 -0.000000 0.018716 0.279864 -0.340754
0.100000 -20.695421 78.302417 -0.000000 0.321446 0.362207 -0.106143 41.426977 117.296722 -0.000000 0.018737 0.279700 -0.340761
0.105000 -20.684479 78.368569 -0.000000 0.321458 0.362349 -0.106127 41.620434 117.446988 -0.000000 0.018774 0.279577 -0.340774
0.110000 -20.657073 78.434960 -0.000000 0.321350 0.362524 -0.105925 41.747943 117.642655 -0.000000 0.018797 0.279391 -0.340770
0.115000 -20.557270 78.517207 -0.000000 0.321380 0.362642 -0.105957 41.901770 117.843012 -0.000000 0.018817 0.279255 -0.340799
0.120000 -20.432713 78.599108 -0.000000 0.321405 0.362739 -0.105948 42.039818 118.059400 -0.000000 0.018843 0.279126 -0.340806
0.125000 -20.290860 78.676709 -0.000000 0.321429 0.362825 -0.105960 42.186193 118.285160 -0.000000 0.018859 0.279038 -0.340801
0.130000 -20.163148 78.747740 -0.000000 0.321447 0.362922 -0.105963 42.313436 118.524908 -0.000000 0.018881 0.278966 -0.340806
0.135000 -20.048814 78.825718 -0.000000 0.321476 0.362975 -0.105945 42.413819 118.764860 -0.000000 0.018892 0.278878 -0.340804
0.140000 -19.936961 78.927362 -0.000000 0.321488 0.363031 -0.105962 42.475008 118.988272 -0.000000 0.018921 0.278838 -0.340810
0.145000 -19.821713 79.062199 -0.000000 0.321505 0.363092 -0.105972 42.475444 119.185804 -0.000000 0.018901 0.278770 -0.340786
0.150000 -19.683920 79.234124 -0.000000 0.321500 0.363139 -0.105972 42.443044 119.347017 -0.000000 0.018929 0.278726 -0.340779
0.155000 -19.544650 79.428038 -0.000000 0.321504 0.363173 -0.105975 42.399704 119.482930 -0.000000 0.018957 0.278654 -0.340779
0.160000 -19.437197 79.621493 -0.000000 0.321487 0.363223 -0.105971 42.378020 119.602758 -0.000000 0.018961 0.278591 -0.340766
0.165000 -19.380270 79.798220 -0.000000 0.321461 0.363242 -0.105981 42.409206 119.704046 -0.000000 0.018982 0.278546 -0.340752
0.170000 -19.397688 79.946760 -0.000000 0.321438 0.363279 -0.105985 42.461943 119.796297 -0.000000 0.019012 0.278501 -0.340760
0.175000 -19.446743 80.075219 -0.000000 0.321413 0.363277 -0.105985 42.552363 119.866985 -0.000000 0.019036 0.278488 -0.340731
0.180000 -19.529118 80.179040 -0.000000 0.321382 0.363301 -0.105981 42.613077 119.931373 -0.000000 0.019071 0.278460 -0.340730
0.185000 -19.596280 80.264047 -0.000000 0.321355 0.363288 -0.105997 42.669250 119.973034 -0.000000 0.019100 0.278440 -0.340763
0.190000 -19.648894 80.329360 -0.000000 0.321309 0.363290 -0.106015 42.697444 119.998081 -0.000000 0.019144 0.278452 -0.340765
0.195000 -19.690132 80.382555 -0.000000 0.321268 0.363278 -0.105996 42.688247 120.019323 -0.000000 0.019169 0.278435 -0.340722
